<svg width="25" height="28" viewBox="0 0 25 28" fill="none" xmlns="http://www.w3.org/2000/svg">
<g filter="url(#filter0_b_1309_469)">
<path d="M1.5 14.0001V3.31909C1.5 1.77948 3.16667 0.817236 4.5 1.58704L13.75 6.92755L23 12.2681C24.3333 13.0379 24.3333 14.9624 23 15.7322L13.75 21.0727L4.5 26.4132C3.16667 27.183 1.5 26.2207 1.5 24.6811V14.0001Z" fill="url(#paint0_linear_1309_469)"/>
<path d="M1.5 14.0001V3.31909C1.5 1.77948 3.16667 0.817236 4.5 1.58704L13.75 6.92755L23 12.2681C24.3333 13.0379 24.3333 14.9624 23 15.7322L13.75 21.0727L4.5 26.4132C3.16667 27.183 1.5 26.2207 1.5 24.6811V14.0001Z" stroke="url(#paint1_linear_1309_469)" stroke-width="1.5" stroke-linejoin="round"/>
</g>
<defs>
<filter id="filter0_b_1309_469" x="-109.25" y="-109.435" width="244" height="246.87" filterUnits="userSpaceOnUse" color-interpolation-filters="sRGB">
<feFlood flood-opacity="0" result="BackgroundImageFix"/>
<feGaussianBlur in="BackgroundImageFix" stdDeviation="55"/>
<feComposite in2="SourceAlpha" operator="in" result="effect1_backgroundBlur_1309_469"/>
<feBlend mode="normal" in="SourceGraphic" in2="effect1_backgroundBlur_1309_469" result="shape"/>
</filter>
<linearGradient id="paint0_linear_1309_469" x1="1.5" y1="28.1452" x2="26" y2="28.1452" gradientUnits="userSpaceOnUse">
<stop stop-color="white"/>
<stop offset="1" stop-color="white"/>
</linearGradient>
<linearGradient id="paint1_linear_1309_469" x1="1.5" y1="28.1452" x2="26" y2="28.1452" gradientUnits="userSpaceOnUse">
<stop stop-color="white"/>
<stop offset="1" stop-color="white"/>
</linearGradient>
</defs>
</svg>
