<svg width="20" height="11" viewBox="0 0 20 11" fill="none" xmlns="http://www.w3.org/2000/svg">
<path d="M1.63599 4.91318C1.23693 4.91318 0.913424 5.23668 0.913424 5.63574C0.913424 6.0348 1.23693 6.3583 1.63599 6.3583V4.91318ZM19.0358 6.14667C19.318 5.86449 19.318 5.40699 19.0358 5.12481L14.4374 0.526458C14.1553 0.24428 13.6978 0.24428 13.4156 0.526458C13.1334 0.808636 13.1334 1.26614 13.4156 1.54832L17.503 5.63574L13.4156 9.72317C13.1334 10.0053 13.1334 10.4628 13.4156 10.745C13.6978 11.0272 14.1553 11.0272 14.4374 10.745L19.0358 6.14667ZM1.63599 6.3583H18.5249V4.91318H1.63599V6.3583Z" fill="#2C7BF2"/>
</svg>
