<svg width="18" height="15" viewBox="0 0 18 15" fill="none" xmlns="http://www.w3.org/2000/svg">
<path d="M1.08189 6.27235C1.15554 6.26073 1.23008 6.25537 1.30465 6.25631H14.0033L13.7264 6.13117C13.4557 6.00669 13.2095 5.83728 12.9987 5.63059L9.43773 2.17036C8.96873 1.73533 8.88993 1.0355 9.25098 0.512206C9.6712 -0.0454281 10.4771 -0.166505 11.051 0.241817C11.0973 0.274823 11.1414 0.310802 11.1828 0.349518L17.6223 6.60672C18.1255 7.09517 18.126 7.88753 17.6233 8.37653C17.623 8.37684 17.6226 8.37719 17.6223 8.3775L11.1828 14.6347C10.6792 15.1227 9.86374 15.1216 9.36146 14.6322C9.32194 14.5937 9.28503 14.5527 9.25098 14.5096C8.88993 13.9863 8.96873 13.2864 9.43773 12.8514L12.9923 9.38491C13.1813 9.20111 13.3985 9.04698 13.6363 8.92814L14.0226 8.75919H1.37553C0.717617 8.78293 0.1404 8.33636 0.0168018 7.70798C-0.0970554 7.02575 0.379787 6.38302 1.08189 6.27235Z" fill="white"/>
</svg>
