<svg width="559" height="406" viewBox="0 0 559 406" fill="none" xmlns="http://www.w3.org/2000/svg">
<path fill-rule="evenodd" clip-rule="evenodd" d="M559 157.669V0L0 -2.44347e-05L-1.77468e-05 406L559 406V320.107C558.944 367.365 520.617 405.657 473.346 405.657C426.041 405.657 387.693 367.309 387.693 320.004V157.772C387.693 110.467 426.041 72.1186 473.346 72.1186C520.617 72.1186 558.944 110.411 559 157.669ZM165.14 137.173C169.727 107.856 195.415 42.7419 261.471 16.8195C96.3326 -43.3573 21.4088 72.3675 0.00195312 137.173L0.00196122 322.333C0.00196323 368.351 36.9694 405.655 82.5711 405.655C128.173 405.655 165.14 368.351 165.14 322.333V137.173ZM198.357 144.233C202.865 81.1317 320.076 -63.1011 477.859 45.0737C374.173 63.1026 365.156 115.687 360.648 144.233V324.524C360.648 369.332 324.318 405.656 279.503 405.656C234.687 405.656 198.357 369.332 198.357 324.524L198.357 144.233Z" fill="white"/>
</svg>
