<svg width="24" height="24" viewBox="0 0 24 24" fill="none" xmlns="http://www.w3.org/2000/svg">
<path d="M17.0104 6.98988L17.0124 6.99116M10.7555 21.246H13.2445C16.0447 21.246 17.4449 21.246 18.5144 20.7011C19.4552 20.2217 20.2201 19.4568 20.6995 18.516C21.2445 17.4464 21.2445 16.0463 21.2445 13.246V10.7571C21.2445 7.95682 21.2445 6.55669 20.6995 5.48713C20.2201 4.54632 19.4552 3.78141 18.5144 3.30205C17.4449 2.75708 16.0447 2.75708 13.2445 2.75708H10.7555C7.95523 2.75708 6.5551 2.75708 5.48554 3.30205C4.54473 3.78141 3.77983 4.54632 3.30046 5.48713C2.75549 6.55669 2.75549 7.95682 2.75549 10.7571V13.246C2.75549 16.0463 2.75549 17.4464 3.30046 18.516C3.77983 19.4568 4.54473 20.2217 5.48554 20.7011C6.5551 21.246 7.95523 21.246 10.7555 21.246ZM15.665 12.0019C15.665 14.025 14.025 15.665 12.0019 15.665C9.97884 15.665 8.33882 14.025 8.33882 12.0019C8.33882 9.97882 9.97884 8.3388 12.0019 8.3388C14.025 8.3388 15.665 9.97882 15.665 12.0019Z" stroke="white" stroke-width="1.5" stroke-miterlimit="10" stroke-linecap="round" stroke-linejoin="round"/>
</svg>
