<svg width="20" height="20" viewBox="0 0 20 20" fill="none" xmlns="http://www.w3.org/2000/svg">
<path d="M8.00501 11.9709C8.75501 12.6901 9.63417 13.2751 10.6058 13.6901L11.0383 13.8743L12.3675 12.5243C12.6975 12.1893 13.175 12.0443 13.6358 12.1409L16.8558 12.8151C17.4008 12.9309 17.79 13.4118 17.79 13.9684V16.2868C17.79 17.1159 17.1183 17.7876 16.2892 17.7876H15.5767C12.2983 17.7876 9.06334 16.7018 6.61667 14.5201C6.41501 14.3409 6.21917 14.1551 6.02834 13.9651L6.05917 13.9959C5.86834 13.8051 5.68334 13.6093 5.50417 13.4076C3.32167 10.9618 2.23584 7.72677 2.23584 4.44844V3.73594C2.23584 2.90677 2.90751 2.23511 3.73667 2.23511H6.05501C6.61167 2.23511 7.09251 2.62427 7.20834 3.16927L7.88334 6.38927C7.97917 6.84927 7.83501 7.32761 7.50001 7.65761L6.15001 8.98677L6.33417 9.41927C6.74917 10.3901 7.28501 11.2209 8.00501 11.9709Z" stroke="white" stroke-miterlimit="10" stroke-linecap="round" stroke-linejoin="round"/>
</svg>
