<svg width="18" height="18" viewBox="0 0 18 18" fill="none" xmlns="http://www.w3.org/2000/svg">
<path d="M9.00033 17.3334C4.39783 17.3334 0.666992 13.6026 0.666992 9.00008C0.666992 4.39758 4.39783 0.666748 9.00033 0.666748C13.6028 0.666748 17.3337 4.39758 17.3337 9.00008C17.3337 13.6026 13.6028 17.3334 9.00033 17.3334ZM8.16699 11.5001V13.1667H9.83366V11.5001H8.16699ZM9.83366 10.1292C10.5034 9.92739 11.0783 9.49171 11.4538 8.90153C11.8292 8.31136 11.9802 7.60596 11.8793 6.9138C11.7783 6.22165 11.4321 5.58878 10.9037 5.13046C10.3753 4.67214 9.6998 4.41886 9.00033 4.41675C8.32604 4.4167 7.67255 4.65021 7.15099 5.07758C6.62943 5.50494 6.272 6.09977 6.13949 6.76091L7.77449 7.08841C7.82089 6.85627 7.93226 6.64208 8.09563 6.47076C8.25901 6.29944 8.46767 6.17803 8.69735 6.12067C8.92702 6.0633 9.16827 6.07234 9.39301 6.14672C9.61775 6.22111 9.81675 6.35778 9.96685 6.54084C10.117 6.7239 10.212 6.94582 10.2409 7.18078C10.2698 7.41574 10.2314 7.65408 10.1301 7.86807C10.0289 8.08205 9.86894 8.26288 9.66893 8.38952C9.46892 8.51616 9.23706 8.5834 9.00033 8.58341C8.77931 8.58341 8.56735 8.67121 8.41107 8.82749C8.25479 8.98377 8.16699 9.19573 8.16699 9.41675V10.6667H9.83366V10.1292Z" fill="#0070CE"/>
</svg>
