<svg width="41" height="34" viewBox="0 0 41 34" fill="none" xmlns="http://www.w3.org/2000/svg">
<path d="M12.8682 19.3943C13.4231 18.7578 12.9711 17.7639 12.1266 17.7639H9.59822C9.58175 17.5137 9.57254 17.2616 9.57254 17.0074C9.57254 10.7077 14.6976 5.5827 20.9971 5.5827C24.0245 5.5827 26.7801 6.76666 28.8265 8.69536L32.3918 4.52441C29.2708 1.66933 25.2543 0.105469 20.9971 0.105469C16.4825 0.105469 12.2381 1.86361 9.04574 5.05589C5.85346 8.24825 4.09531 12.4927 4.09531 17.0073C4.09531 17.2604 4.10164 17.5125 4.11264 17.7638H1.98295C1.13845 17.7638 0.68635 18.7577 1.24133 19.3943L7.05475 26.0625L12.8682 19.3943Z" fill="#024E90"/>
<path d="M40.753 16.179L34.9396 9.51069L29.1261 16.179C28.5712 16.8155 29.0233 17.8094 29.8678 17.8094H32.3932C31.98 23.7361 27.027 28.4318 20.9972 28.4318C18.365 28.4318 15.9382 27.5366 14.0044 26.0353L10.4389 30.2065C13.4258 32.6053 17.111 33.9091 20.9972 33.9091C25.5119 33.9091 29.7563 32.151 32.9486 28.9586C35.9512 25.9561 37.6845 22.0228 37.88 17.8095H40.0114C40.8559 17.8094 41.3079 16.8155 40.753 16.179Z" fill="#024E90"/>
</svg>
