<svg width="70" height="56" viewBox="0 0 70 56" fill="none" xmlns="http://www.w3.org/2000/svg">
<path fill-rule="evenodd" clip-rule="evenodd" d="M45.3465 15.2099C45.3465 23.6101 38.5845 30.4198 30.243 30.4198C21.9016 30.4198 15.1396 23.6101 15.1396 15.2099C15.1396 14.2911 15.2205 13.3913 15.3755 12.5174L15.3887 12.4444C16.68 5.36459 22.8394 0 30.243 0C37.6467 0 43.8061 5.36459 45.0974 12.4444C45.261 13.3412 45.3465 14.2655 45.3465 15.2099ZM23.9114 17.252H28.684C29.0776 17.252 29.3352 17.6609 29.1627 18.0119L25.48 25.5073C25.2175 26.0417 25.9067 26.5326 26.333 26.1147L38.322 14.3631C38.6605 14.0312 38.4237 13.4588 37.9477 13.4588H32.3371C31.9685 13.4588 31.7113 13.096 31.836 12.7518L34.4435 5.55001C34.6423 5.00094 33.9295 4.58433 33.5418 5.02299L23.511 16.3752C23.2092 16.7168 23.4536 17.252 23.9114 17.252Z" fill="#2C67BE"/>
<path fill-rule="evenodd" clip-rule="evenodd" d="M30.243 33.1852C40.1011 33.1852 48.0926 25.1374 48.0926 15.2099C48.0926 14.2694 48.0208 13.3459 47.8827 12.4444H56.3308C58.2266 12.4444 59.7634 13.9921 59.7634 15.9012V52.5432C59.7634 54.4523 58.2266 56 56.3308 56H4.15526C2.2595 56 0.722656 54.4523 0.722656 52.5432V15.9012C0.722656 13.9921 2.2595 12.4444 4.15526 12.4444H12.6034C12.4652 13.3459 12.3935 14.2694 12.3935 15.2099C12.3935 25.1374 20.385 33.1852 30.243 33.1852ZM12.3935 38.716C11.6352 38.716 11.0205 39.3351 11.0205 40.0988C11.0205 40.8624 11.6352 41.4815 12.3935 41.4815H48.7791C49.5374 41.4815 50.1521 40.8624 50.1521 40.0988C50.1521 39.3351 49.5374 38.716 48.7791 38.716H12.3935ZM11.0205 48.3951C11.0205 47.6314 11.6352 47.0123 12.3935 47.0123H48.7791C49.5374 47.0123 50.1521 47.6314 50.1521 48.3951C50.1521 49.1587 49.5374 49.7778 48.7791 49.7778H12.3935C11.6352 49.7778 11.0205 49.1587 11.0205 48.3951Z" fill="#2C67BE"/>
<path d="M62.5095 24.1975V44.2469H63.8826V47.7037C63.8826 49.231 65.1121 50.4691 66.6286 50.4691C68.1452 50.4691 69.3747 49.231 69.3747 47.7037V20.7407C69.3747 19.2135 68.1452 17.9753 66.6286 17.9753C65.1121 17.9753 63.8826 19.2135 63.8826 20.7407V24.1975H62.5095Z" fill="#2C67BE"/>
</svg>
