<svg width="66" height="64" viewBox="0 0 66 64" fill="none" xmlns="http://www.w3.org/2000/svg">
<path d="M62.309 27.2347C62.0308 26.9976 61.8406 26.6755 61.7686 26.3194C61.6966 25.9634 61.7468 25.5937 61.9114 25.2691L62.8393 23.4927C63.1352 22.9085 63.3014 22.2685 63.3268 21.6156C63.3522 20.9627 63.2362 20.3119 62.9866 19.707C62.7322 19.1046 62.3491 18.5637 61.8635 18.1214C61.378 17.6791 60.8014 17.3458 60.1734 17.1443L58.2439 16.5182C57.8978 16.4031 57.6001 16.1776 57.3975 15.8772C57.195 15.5768 57.0989 15.2185 57.1245 14.8583L57.2866 12.8635C57.3374 12.2121 57.245 11.5574 57.0158 10.9446C56.7865 10.3318 56.4258 9.77524 55.9585 9.31322C55.4911 8.8512 54.9282 8.49463 54.3083 8.26801C53.6883 8.04138 53.0262 7.95006 52.3672 8.00032L50.3493 8.16049C49.9841 8.19099 49.6192 8.09817 49.3143 7.89717C49.0093 7.69618 48.7823 7.3989 48.6703 7.05389L48.0369 5.14646C47.8337 4.52629 47.497 3.95699 47.05 3.47773C46.6029 2.99848 46.0562 2.62063 45.4474 2.37019C44.8385 2.11975 44.182 2.00266 43.5231 2.02697C42.8641 2.05128 42.2182 2.21641 41.63 2.51101L39.8183 3.42832C39.4927 3.59248 39.1206 3.64298 38.7623 3.57161C38.404 3.50024 38.0806 3.31119 37.8447 3.03519L36.5191 1.57914C36.0891 1.08381 35.5558 0.686245 34.9559 0.413681C34.3559 0.141117 33.7034 0 33.0432 0C32.3829 0 31.7304 0.141117 31.1304 0.413681C30.5305 0.686245 29.9972 1.08381 29.5672 1.57914L28.2563 3.03519C28.0165 3.31021 27.6906 3.49823 27.3305 3.56944C26.9703 3.64066 26.5964 3.59099 26.268 3.42832L24.4711 2.51101C23.8801 2.21849 23.2327 2.05418 22.5723 2.02907C21.9118 2.00396 21.2536 2.11863 20.6416 2.36541C20.0323 2.61688 19.4852 2.9956 19.0378 3.47561C18.5903 3.95563 18.2532 4.5256 18.0494 5.14646L17.416 7.05389C17.3018 7.39747 17.0742 7.69323 16.7698 7.89385C16.4654 8.09447 16.1017 8.18836 15.737 8.16049L13.7191 8.00032C13.0607 7.95255 12.3996 8.04558 11.7809 8.27309C11.1621 8.50059 10.6002 8.85723 10.1334 9.31871C9.66656 9.7802 9.30581 10.3357 9.07568 10.9474C8.84554 11.5591 8.75144 12.2126 8.79976 12.8635L8.96177 14.8583C8.99263 15.2194 8.89873 15.5801 8.69542 15.8816C8.49211 16.1831 8.19139 16.4075 7.84239 16.5182L5.91294 17.1298C5.2881 17.3365 4.71536 17.6733 4.23331 18.1174C3.75126 18.5615 3.37111 19.1025 3.11847 19.7041C2.86584 20.3057 2.74659 20.9539 2.76877 21.6049C2.79095 22.2559 2.95404 22.8947 3.24705 23.4781L4.17495 25.2691C4.34101 25.591 4.39209 25.9589 4.31989 26.3131C4.2477 26.6673 4.05647 26.987 3.77728 27.2202L2.30441 28.5306C1.80336 28.9557 1.4012 29.4829 1.12549 30.076C0.849778 30.6691 0.707031 31.3142 0.707031 31.9669C0.707031 32.6196 0.849778 33.2647 1.12549 33.8578C1.4012 34.4509 1.80336 34.9781 2.30441 35.4032L3.77728 36.6991C4.05548 36.9362 4.24567 37.2583 4.3177 37.6144C4.38974 37.9704 4.3395 38.3401 4.17495 38.6647L3.24705 40.4411C2.95115 41.0253 2.78494 41.6653 2.75953 42.3182C2.73413 42.9711 2.85013 43.6219 3.09976 44.2268C3.35413 44.8292 3.73723 45.3701 4.22279 45.8124C4.70835 46.2547 5.2849 46.588 5.91294 46.7895L7.84239 47.4156C8.18852 47.5308 8.4862 47.7562 8.68878 48.0566C8.89135 48.357 8.98737 48.7153 8.96177 49.0755L8.79976 51.0703C8.75144 51.7212 8.84554 52.3747 9.07568 52.9864C9.30581 53.5981 9.66656 54.1536 10.1334 54.6151C10.6002 55.0766 11.1621 55.4332 11.7809 55.6607C12.3996 55.8882 13.0607 55.9813 13.7191 55.9335L15.737 55.7733C16.1022 55.7428 16.4671 55.8356 16.7721 56.0366C17.077 56.2376 17.304 56.5349 17.416 56.8799L18.0346 58.7873C18.2438 59.405 18.5844 59.9712 19.0337 60.4478C19.4829 60.9243 20.0302 61.3001 20.6388 61.5499C21.2473 61.7996 21.903 61.9175 22.5615 61.8956C23.22 61.8737 23.8662 61.7125 24.4563 61.4228L26.268 60.5055C26.5936 60.3413 26.9658 60.2908 27.3241 60.3622C27.6824 60.4336 28.0057 60.6226 28.2416 60.8986L29.5672 62.3547C29.9902 62.8628 30.5205 63.2734 31.121 63.5577C31.7214 63.8419 32.3775 63.9928 33.0432 64C33.7026 63.9989 34.3541 63.858 34.9538 63.5867C35.5534 63.3154 36.0872 62.9201 36.5191 62.4275L37.83 60.8986C38.0698 60.6236 38.3957 60.4356 38.7558 60.3644C39.116 60.2931 39.49 60.3428 39.8183 60.5055L41.6152 61.4228C42.2062 61.7153 42.8536 61.8796 43.5141 61.9047C44.1745 61.9298 44.8327 61.8152 45.4447 61.5684C46.054 61.3169 46.6011 60.9382 47.0485 60.4582C47.496 59.9782 47.8331 59.4082 48.0369 58.7873L48.6703 56.8799C48.7845 56.5363 49.0121 56.2406 49.3165 56.04C49.6209 55.8393 49.9846 55.7454 50.3493 55.7733L52.3672 55.9335C53.0262 55.9837 53.6883 55.8924 54.3083 55.6658C54.9282 55.4392 55.4911 55.0826 55.9585 54.6206C56.4258 54.1586 56.7865 53.602 57.0158 52.9892C57.245 52.3764 57.3374 51.7217 57.2866 51.0703L57.1245 49.0755C57.0937 48.7144 57.1876 48.3537 57.3909 48.0522C57.5942 47.7507 57.8949 47.5263 58.2439 47.4156L60.1734 46.8041C60.801 46.5976 61.3768 46.2608 61.862 45.8163C62.3472 45.3718 62.7306 44.8298 62.9866 44.2268C63.2374 43.6242 63.3529 42.9748 63.3249 42.3237C63.297 41.6725 63.1262 41.0352 62.8245 40.4557L61.9114 38.6647C61.7453 38.3428 61.6942 37.9749 61.7664 37.6207C61.8386 37.2665 62.0298 36.9468 62.309 36.7136L63.7819 35.4032C64.2829 34.9781 64.6851 34.4509 64.9608 33.8578C65.2365 33.2647 65.3793 32.6196 65.3793 31.9669C65.3793 31.3142 65.2365 30.6691 64.9608 30.076C64.6851 29.4829 64.2829 28.9557 63.7819 28.5306L62.309 27.2347ZM33.0432 52.3516C28.9649 52.3516 24.9782 51.1561 21.5872 48.9162C18.1963 46.6763 15.5533 43.4926 13.9926 39.7678C12.4319 36.043 12.0236 31.9443 12.8192 27.99C13.6149 24.0358 15.5787 20.4036 18.4625 17.5527C21.3463 14.7019 25.0204 12.7604 29.0204 11.9739C33.0203 11.1873 37.1663 11.591 40.9341 13.1339C44.702 14.6768 47.9224 17.2895 50.1882 20.6418C52.454 23.994 53.6633 27.9352 53.6633 31.9669C53.6633 37.3733 51.4908 42.5582 47.6238 46.3811C43.7568 50.2039 38.512 52.3516 33.0432 52.3516Z" fill="#2C67BE"/>
<path d="M33.0432 14.4943C29.5475 14.4943 26.1303 15.5191 23.2238 17.439C20.3172 19.3589 18.0519 22.0877 16.7141 25.2804C15.3764 28.4731 15.0264 31.9863 15.7084 35.3756C16.3903 38.765 18.0737 41.8783 20.5455 44.3219C23.0173 46.7655 26.1665 48.4296 29.595 49.1038C33.0235 49.778 36.5773 49.4319 39.8069 48.1095C43.0364 46.787 45.7968 44.5475 47.7389 41.6742C49.681 38.8008 50.7176 35.4227 50.7176 31.9669C50.7176 27.3329 48.8554 22.8887 45.5409 19.6119C42.2263 16.3352 37.7307 14.4943 33.0432 14.4943ZM42.9261 27.1765L31.1432 38.8249C31.0062 38.9614 30.8433 39.0697 30.6639 39.1436C30.4844 39.2175 30.2919 39.2556 30.0974 39.2556C29.903 39.2556 29.7105 39.2175 29.531 39.1436C29.3515 39.0697 29.1886 38.9614 29.0517 38.8249L23.1602 33.0007C22.8829 32.7265 22.7271 32.3547 22.7271 31.9669C22.7271 31.5792 22.8829 31.2073 23.1602 30.9331C23.4376 30.6589 23.8137 30.5049 24.2059 30.5049C24.5982 30.5049 24.9743 30.6589 25.2517 30.9331L30.0974 35.7381L40.8346 25.1089C41.112 24.8347 41.4881 24.6807 41.8804 24.6807C42.2726 24.6807 42.6488 24.8347 42.9261 25.1089C43.2034 25.3831 43.3593 25.755 43.3593 26.1427C43.3593 26.5305 43.2034 26.9023 42.9261 27.1765Z" fill="#2C67BE"/>
</svg>
