<svg width="88" height="98" viewBox="0 0 88 98" fill="none" xmlns="http://www.w3.org/2000/svg">
<path d="M43.9993 29.362C33.1996 29.362 24.4436 38.142 24.4436 48.9729C24.4436 59.8038 33.1996 68.5838 43.9993 68.5838C54.7996 68.5838 63.5549 59.8038 63.5549 48.9729C63.5445 38.1465 54.7952 29.3725 43.9993 29.362ZM53.061 45.8035L43.2835 55.6086C42.3299 56.5656 40.7829 56.5664 39.8278 55.6101C39.8278 55.6093 39.827 55.6094 39.827 55.6086L34.9383 50.7061C33.9668 49.7655 33.94 48.2133 34.8779 47.2398C35.8158 46.2656 37.3629 46.2387 38.3344 47.1793C38.3545 47.1987 38.3746 47.2189 38.3948 47.2398L41.5553 50.4085L49.6045 42.3365C50.5424 41.3623 52.0902 41.3354 53.061 42.276C54.0324 43.2166 54.0593 44.768 53.1213 45.7422C53.102 45.7624 53.0818 45.7826 53.061 45.8028V45.8035Z" fill="#2C67BE"/>
<path d="M85.5553 14.6537C71.3372 14.6537 52.6218 9.84237 45.9571 0.926283C45.0669 -0.157852 43.4692 -0.312622 42.3873 0.580108C42.2613 0.684035 42.1458 0.799926 42.0421 0.926283C35.3774 9.84237 16.6621 14.6537 2.44399 14.6537C1.0945 14.6537 0 15.7513 0 17.1053V48.9729C0 75.9283 23.3417 92.1776 43.3267 97.9041C43.7666 98.032 44.2334 98.032 44.6733 97.9041C64.6583 92.1776 88 75.9283 88 48.9729V17.1053C87.9993 15.7513 86.9048 14.6537 85.5553 14.6537ZM43.9993 73.4864C30.4992 73.4864 19.5549 62.5112 19.5549 48.9729C19.5549 35.4347 30.4992 24.4595 43.9993 24.4595C57.5001 24.4595 68.4436 35.4347 68.4436 48.9729C68.428 62.5052 57.4934 73.4707 43.9993 73.4864Z" fill="#2C67BE"/>
</svg>
