<svg width="50" height="56" viewBox="0 0 50 56" fill="none" xmlns="http://www.w3.org/2000/svg">
<path d="M24.9996 16.7783C18.8634 16.7783 13.8884 21.7955 13.8884 27.9845C13.8884 34.1736 18.8634 39.1908 24.9996 39.1908C31.1362 39.1908 36.1107 34.1736 36.1107 27.9845C36.1048 21.798 31.1336 16.7843 24.9996 16.7783ZM30.1483 26.1734L24.5929 31.7763C24.0511 32.3232 23.1721 32.3236 22.6294 31.7772C22.6294 31.7768 22.629 31.7768 22.629 31.7763L19.8513 28.9749C19.2993 28.4374 19.2841 27.5505 19.817 26.9942C20.3499 26.4375 21.2289 26.4221 21.7809 26.9596C21.7923 26.9707 21.8038 26.9822 21.8152 26.9942L23.6109 28.8049L28.1844 24.1923C28.7173 23.6356 29.5967 23.6202 30.1483 24.1577C30.7002 24.6952 30.7155 25.5817 30.1826 26.1384C30.1716 26.1499 30.1601 26.1615 30.1483 26.173V26.1734Z" fill="#2C67BE"/>
<path d="M48.6109 8.37354C40.5325 8.37354 29.8988 5.62421 26.112 0.529305C25.6062 -0.0902014 24.6984 -0.178641 24.0837 0.33149C24.0121 0.390877 23.9465 0.4571 23.8876 0.529305C20.1008 5.62421 9.46708 8.37354 1.38863 8.37354C0.621876 8.37354 0 9.00073 0 9.77447V27.9845C0 43.3876 13.2623 52.6729 24.6175 55.9452C24.8674 56.0183 25.1326 56.0183 25.3825 55.9452C36.7377 52.6729 50 43.3876 50 27.9845V9.77447C49.9996 9.00073 49.3777 8.37354 48.6109 8.37354ZM24.9996 41.9922C17.3291 41.9922 11.1107 35.7207 11.1107 27.9845C11.1107 20.2484 17.3291 13.9769 24.9996 13.9769C32.6705 13.9769 38.8884 20.2484 38.8884 27.9845C38.8795 35.7173 32.6667 41.9832 24.9996 41.9922Z" fill="#2C67BE"/>
</svg>
