<svg width="81" height="81" viewBox="0 0 81 81" fill="none" xmlns="http://www.w3.org/2000/svg">
<path d="M0.0351562 40.035C0.0351562 62.1263 17.9438 80.0348 40.0352 80.0348C62.1265 80.0348 80.0352 62.1263 80.0352 40.035C80.0352 17.9437 62.1265 0.0351562 40.0352 0.0351562C17.9438 0.0351562 0.0351562 17.9437 0.0351562 40.035ZM70.6352 40.035C70.6352 56.9348 56.9351 70.6349 40.0352 70.6349C23.1352 70.6349 9.43516 56.9348 9.43516 40.035C9.43516 23.1352 23.1352 9.43512 40.0352 9.43512C56.9351 9.43512 70.6352 23.1352 70.6352 40.035Z" fill="url(#paint0_linear_543_4594)"/>
<path d="M37.1354 54.5377C36.794 54.874 36.3283 55.0618 35.8444 55.0618C35.3606 55.0618 34.8949 54.874 34.5535 54.5377L24.2439 44.4373C23.1739 43.3891 23.1739 41.6899 24.2439 40.6436L25.5349 39.379C26.6049 38.3309 28.3378 38.3309 29.4078 39.379L35.8444 45.684L53.237 28.6472C54.307 27.599 56.0417 27.599 57.1099 28.6472L58.4009 29.9118C59.4709 30.9599 59.4709 32.6591 58.4009 33.7055L37.1354 54.5377Z" fill="url(#paint1_linear_543_4594)"/>
<defs>
<linearGradient id="paint0_linear_543_4594" x1="80.0352" y1="80.0348" x2="0.0351563" y2="80.0348" gradientUnits="userSpaceOnUse">
<stop stop-color="#008AFF"/>
<stop offset="1" stop-color="#005BA8"/>
</linearGradient>
<linearGradient id="paint1_linear_543_4594" x1="23.4414" y1="55.0618" x2="59.2034" y2="55.0618" gradientUnits="userSpaceOnUse">
<stop stop-color="#008AFF"/>
<stop offset="1" stop-color="#005BA8"/>
</linearGradient>
</defs>
</svg>
