<svg width="24" height="24" viewBox="0 0 24 24" fill="none" xmlns="http://www.w3.org/2000/svg">
<path d="M19.0808 8.21701C19.0808 13.9166 14.8805 19.5111 8.99593 19.5111C5.84521 19.5111 2.69489 17.812 2.69489 17.812C3.98966 17.812 6.19639 17.302 8.09256 15.8713C7.14114 15.5547 5.57144 14.6735 4.05682 13.572M19.0808 8.21701C19.0808 7.44027 18.8431 6.71904 18.4366 6.12206M19.0808 8.21701L21.3114 7.28651M2.69489 4.49072C5.51038 8.17768 10.2019 9.40941 11.5909 9.19685C11.6155 8.881 11.6282 8.55449 11.6282 8.21701C11.6282 6.15904 13.2965 4.49072 15.3545 4.49072C16.6357 4.49072 17.7659 5.13735 18.4366 6.12206M18.4366 6.12206C18.876 6.21331 19.9416 6.01478 20.6887 4.49072M3.51579 9.3953C4.55792 10.2557 4.86998 10.543 5.98496 11.0754" stroke="white" stroke-width="1.5" stroke-miterlimit="10" stroke-linecap="round" stroke-linejoin="round"/>
</svg>
