<svg width="40" height="40" viewBox="0 0 40 40" fill="none" xmlns="http://www.w3.org/2000/svg">
<path d="M20.0014 0C8.96407 0 0.00149853 8.96281 0.00149853 20.0013C0.00816559 23.5336 0.967954 26.9907 2.74628 30.0378L0.0353517 38.1706C-0.138407 38.6919 0.35789 39.1879 0.879094 39.0143L8.6577 36.4219C11.9917 38.7299 15.9387 39.994 20.0001 40C31.0381 39.9997 40 31.0377 40 20C40 8.96201 31.0387 0.000253228 20.0014 0ZM13.3178 18C14.4145 18 15.3178 18.9034 15.3178 20C15.3178 21.0968 14.4145 22 13.3178 22C12.2212 22 11.3192 21.0968 11.3191 20C11.3191 18.9034 12.2212 18 13.3178 18ZM20.0014 18C21.098 18 22.0014 18.9034 22.0014 20C22.0014 21.0968 21.098 22 20.0014 22C18.9048 22 18.0014 21.0968 18.0014 20C18.0014 18.9034 18.9048 18 20.0014 18ZM26.6511 18C27.7477 18 28.6511 18.9034 28.6511 20C28.6511 21.0968 27.7477 22 26.6511 22C25.5545 22 24.6511 21.0968 24.6511 20C24.6511 18.9034 25.5545 18 26.6511 18Z" fill="url(#paint0_linear_547_2164)"/>
<defs>
<linearGradient id="paint0_linear_547_2164" x1="0" y1="40" x2="40" y2="40" gradientUnits="userSpaceOnUse">
<stop stop-color="#008AFF"/>
<stop offset="1" stop-color="#005BA8"/>
</linearGradient>
</defs>
</svg>
